# xmcd
#
# Track frame offsets:
#	150
#	23650
#	37510
#	56350
#	69913
#	86713
#	99435
#	118145
#	143428
#	160530
#
# Disc length: 2347 seconds
#
# Revision: 0
# Processed by: cddbd v1.5.2PL0 Copyright (c) Steve Scherf et al.
# Submitted via: audiograbber 1.83.01
#
DISCID=6909290a
DTITLE=Marius Müller-Westernhagen - Mit Pfefferminz bin ich Dein Prinz
DYEAR=1978
DGENRE=Rock
TTITLE0=Mit 18
TTITLE1=Zieh' Dir bloß die Schuhe aus
TTITLE2=Willi Wucher
TTITLE3=Oh, Margarethe
TTITLE4=Alles in den Wind
TTITLE5=Mit Pfefferminz bin ich Dein Prinz
TTITLE6=Dicke
TTITLE7=Giselher
TTITLE8=Grüß mir die Genossen
TTITLE9=Johnny W.
EXTD=
EXTT0=
EXTT1=
EXTT2=
EXTT3=
EXTT4=
EXTT5=
EXTT6=
EXTT7=
EXTT8=
EXTT9=
PLAYORDER=
